<svg xmlns="http://www.w3.org/2000/svg" viewBox="0 0 100 100"><defs><style>.cls-1{fill:#fff;}.cls-2{fill:#eec39a;}.cls-3{fill:#9674ce;}.cls-4{fill:#f9e5d3;}</style></defs><g id="Layer_4" data-name="Layer 4"><rect width="100" height="100"/></g><g id="Layer_3" data-name="Layer 3"><path d="M8.30078,77.209a1.40393,1.40393,0,0,1-.4375-1.02539,1.348,1.348,0,0,1,.45117-1.03906l7.38282-7.61523h-6.166a1.4494,1.4494,0,0,1-1.06641-.4375,1.527,1.527,0,0,1-.32129-1.6543,1.48966,1.48966,0,0,1,.32129-.47852,1.4494,1.4494,0,0,1,1.06641-.4375h9.47461a1.57617,1.57617,0,0,1,.5332.10938h.01367l.05469.02734.06836.02735.13672.082.082.05469a1.24887,1.24887,0,0,1,.458.51269,1.49623,1.49623,0,0,1,.15723.66309v.05468a1.47169,1.47169,0,0,1-.49219,1.09375l-7.36914,7.5879h6.67187a1.53764,1.53764,0,0,1,1.09375.41015,1.36218,1.36218,0,0,1,.4375,1.03906,1.45093,1.45093,0,0,1-.4375,1.06641,1.48322,1.48322,0,0,1-1.09375.4375H9.39453A1.44612,1.44612,0,0,1,8.30078,77.209Z"/><path d="M27.09961,77.46191a1.486,1.486,0,0,1-.57422-.66308L22.17773,66.64062a1.54289,1.54289,0,0,1-.15039-.61523,1.54019,1.54019,0,0,1,1.53125-1.53125,1.457,1.457,0,0,1,.81348.24609,1.55485,1.55485,0,0,1,.56738.65625l2.98047,7.21875,2.9668-7.20507A1.51939,1.51939,0,0,1,33.375,64.959a1.69232,1.69232,0,0,1,.30078.49219,1.49164,1.49164,0,0,1,.10938.56055,1.66832,1.66832,0,0,1-.13672.64258L29.32812,76.79883a1.71552,1.71552,0,0,1-.581.69043,1.437,1.437,0,0,1-.78613.21191A1.59278,1.59278,0,0,1,27.09961,77.46191Z"/><path d="M45.61816,81.42676a1.49791,1.49791,0,0,1-.417-1.08692v-4.1289a5.53337,5.53337,0,0,1-3.65039,1.39453A6.55488,6.55488,0,0,1,38.96,77.08594a6.74851,6.74851,0,0,1-2.15332-1.44922,6.65068,6.65068,0,0,1-1.96875-4.74414V66.03906a1.53127,1.53127,0,1,1,3.0625,0v4.86719a3.45629,3.45629,0,0,0,.28711,1.3877,3.61733,3.61733,0,0,0,.80664,1.16894,3.73628,3.73628,0,0,0,1.16895.793,3.45621,3.45621,0,0,0,1.38769.28711,3.51223,3.51223,0,0,0,1.34668-.2666,3.60623,3.60623,0,0,0,1.15527-.75879,3.77533,3.77533,0,0,0,.82032-1.1211,3.38368,3.38368,0,0,0,.32812-1.33984V66.03906a1.51741,1.51741,0,0,1,1.51758-1.54492,1.55039,1.55039,0,0,1,1.09375.45117,1.489,1.489,0,0,1,.45117,1.09375V80.33984a1.42539,1.42539,0,0,1-.46484,1.08008,1.5578,1.5578,0,0,1-1.10742.4375A1.42872,1.42872,0,0,1,45.61816,81.42676Z"/><path d="M53.90332,77.33887a6.54837,6.54837,0,0,1-2.167-1.415,6.62656,6.62656,0,0,1-1.46973-2.11914,6.3474,6.3474,0,0,1-.52637-2.57031,6.68821,6.68821,0,0,1,.51954-2.61817,6.60073,6.60073,0,0,1,1.46289-2.167,6.76645,6.76645,0,0,1,4.79882-1.95508,6.85718,6.85718,0,0,1,2.51563.46484,5.89314,5.89314,0,0,1,2.05078,1.32618,1.76115,1.76115,0,0,1,.54688,1.25781,1.38537,1.38537,0,0,1-.54688,1.10742,1.7939,1.7939,0,0,1-.499.29395,1.367,1.367,0,0,1-.48535.10254,1.61872,1.61872,0,0,1-.86133-.27344q-.20508-.123-.72461-.51953a3.47386,3.47386,0,0,0-1.08008-.52637,4.635,4.635,0,0,0-1.20312-.14356,3.21223,3.21223,0,0,0-1.32618.335,3.70645,3.70645,0,0,0-1.08008.81347,3.93034,3.93034,0,0,0-.71093,1.1416,3.39461,3.39461,0,0,0-.25977,1.292,3.53122,3.53122,0,0,0,.25977,1.31933,3.75033,3.75033,0,0,0,.72461,1.15527,3.5376,3.5376,0,0,0,1.12793.82032,3.23344,3.23344,0,0,0,1.374.30078,4.17455,4.17455,0,0,0,1.12793-.14356,3.3751,3.3751,0,0,0,1.0459-.52636q.10986-.082.417-.30762a3.37179,3.37179,0,0,1,.59473-.35547,1.40869,1.40869,0,0,1,.58789-.12988,1.36415,1.36415,0,0,1,.50586.10937,1.69249,1.69249,0,0,1,.49218.30078,1.38409,1.38409,0,0,1,.51954,1.08008,1.70063,1.70063,0,0,1-.13672.65625,1.854,1.854,0,0,1-.41016.60157,5.89325,5.89325,0,0,1-2.05078,1.32617,6.85718,6.85718,0,0,1-2.51563.46484A6.927,6.927,0,0,1,53.90332,77.33887Z"/><path d="M73.91211,77.27734a1.38568,1.38568,0,0,1-.45117-1.05273v-5.25a4.1827,4.1827,0,0,0-.21875-1.35352,3.20889,3.20889,0,0,0-.62891-1.10742,2.98788,2.98788,0,0,0-1.00488-.74512,3.0298,3.0298,0,0,0-1.27832-.2666,4.07331,4.07331,0,0,0-1.415.25293,4.40364,4.40364,0,0,0-1.251.7041,3.56243,3.56243,0,0,0-.90918,1.08692,2.71266,2.71266,0,0,0-.335,1.30566v5.31836a1.46616,1.46616,0,0,1-.4375,1.08008,1.45092,1.45092,0,0,1-1.0664.4375,1.48322,1.48322,0,0,1-1.09375-.4375,1.46612,1.46612,0,0,1-.4375-1.08008V61.18555a1.489,1.489,0,0,1,.45117-1.09375,1.46611,1.46611,0,0,1,1.08008-.4375,1.45088,1.45088,0,0,1,1.0664.4375,1.48322,1.48322,0,0,1,.4375,1.09375v5.05859a5.94357,5.94357,0,0,1,1.81153-1.292,4.99827,4.99827,0,0,1,2.09863-.458,6.0954,6.0954,0,0,1,2.44043.49219,5.76916,5.76916,0,0,1,1.97558,1.39453,6.35508,6.35508,0,0,1,1.292,2.07129,6.8787,6.8787,0,0,1,.458,2.50879v5.26367a1.38568,1.38568,0,0,1-.45117,1.05273,1.47785,1.47785,0,0,1-.48535.32129,1.50884,1.50884,0,0,1-.581.11621A1.45089,1.45089,0,0,1,73.91211,77.27734Z"/><path d="M82.59375,77.31836a6.72778,6.72778,0,0,1-3.5752-3.5752,6.65841,6.65841,0,0,1,.00684-5.14062,6.8735,6.8735,0,0,1,1.43555-2.15332,6.71681,6.71681,0,0,1,2.13281-1.43555,6.60728,6.60728,0,0,1,5.12012-.00683,6.68733,6.68733,0,0,1,2.13965,1.44238,6.78545,6.78545,0,0,1,1.42871,2.14648,6.58889,6.58889,0,0,1,.51269,2.584v5.07226a1.489,1.489,0,0,1-.45117,1.09375,1.44131,1.44131,0,0,1-1.09375.46485,1.4351,1.4351,0,0,1-1.43555-1.08008,6.5892,6.5892,0,0,1-6.2207.58789Zm3.958-2.7959a3.63619,3.63619,0,0,0,1.16894-.78613,3.6836,3.6836,0,0,0,.76563-1.16211,3.69274,3.69274,0,0,0,0-2.78906,3.68348,3.68348,0,0,0-.76563-1.16211,3.574,3.574,0,0,0-1.16211-.77246,3.61689,3.61689,0,0,0-1.4082-.28028,3.6014,3.6014,0,0,0-3.32227,2.21485,3.61546,3.61546,0,0,0,.7793,3.95117,3.52452,3.52452,0,0,0,2.543,1.0664A3.56953,3.56953,0,0,0,86.55176,74.52246Z"/><path class="cls-1" d="M8.30078,77.209a1.40393,1.40393,0,0,1-.4375-1.02539,1.348,1.348,0,0,1,.45117-1.03906l7.38282-7.61523h-6.166a1.4494,1.4494,0,0,1-1.06641-.4375,1.527,1.527,0,0,1-.32129-1.6543,1.48966,1.48966,0,0,1,.32129-.47852,1.4494,1.4494,0,0,1,1.06641-.4375h9.47461a1.57617,1.57617,0,0,1,.5332.10938h.01367l.05469.02734.06836.02735.13672.082.082.05469a1.24887,1.24887,0,0,1,.458.51269,1.49623,1.49623,0,0,1,.15723.66309v.05468a1.47169,1.47169,0,0,1-.49219,1.09375l-7.36914,7.5879h6.67187a1.53764,1.53764,0,0,1,1.09375.41015,1.36218,1.36218,0,0,1,.4375,1.03906,1.45093,1.45093,0,0,1-.4375,1.06641,1.48322,1.48322,0,0,1-1.09375.4375H9.39453A1.44612,1.44612,0,0,1,8.30078,77.209Z"/><path class="cls-1" d="M27.09961,77.46191a1.486,1.486,0,0,1-.57422-.66308L22.17773,66.64062a1.54289,1.54289,0,0,1-.15039-.61523,1.54019,1.54019,0,0,1,1.53125-1.53125,1.457,1.457,0,0,1,.81348.24609,1.55485,1.55485,0,0,1,.56738.65625l2.98047,7.21875,2.9668-7.20507A1.51939,1.51939,0,0,1,33.375,64.959a1.69232,1.69232,0,0,1,.30078.49219,1.49164,1.49164,0,0,1,.10938.56055,1.66832,1.66832,0,0,1-.13672.64258L29.32812,76.79883a1.71552,1.71552,0,0,1-.581.69043,1.437,1.437,0,0,1-.78613.21191A1.59278,1.59278,0,0,1,27.09961,77.46191Z"/><path class="cls-1" d="M45.61816,81.42676a1.49791,1.49791,0,0,1-.417-1.08692v-4.1289a5.53337,5.53337,0,0,1-3.65039,1.39453A6.55488,6.55488,0,0,1,38.96,77.08594a6.74851,6.74851,0,0,1-2.15332-1.44922,6.65068,6.65068,0,0,1-1.96875-4.74414V66.03906a1.53127,1.53127,0,1,1,3.0625,0v4.86719a3.45629,3.45629,0,0,0,.28711,1.3877,3.61733,3.61733,0,0,0,.80664,1.16894,3.73628,3.73628,0,0,0,1.16895.793,3.45621,3.45621,0,0,0,1.38769.28711,3.51223,3.51223,0,0,0,1.34668-.2666,3.60623,3.60623,0,0,0,1.15527-.75879,3.77533,3.77533,0,0,0,.82032-1.1211,3.38368,3.38368,0,0,0,.32812-1.33984V66.03906a1.51741,1.51741,0,0,1,1.51758-1.54492,1.55039,1.55039,0,0,1,1.09375.45117,1.489,1.489,0,0,1,.45117,1.09375V80.33984a1.42539,1.42539,0,0,1-.46484,1.08008,1.5578,1.5578,0,0,1-1.10742.4375A1.42872,1.42872,0,0,1,45.61816,81.42676Z"/><path class="cls-1" d="M53.90332,77.33887a6.54837,6.54837,0,0,1-2.167-1.415,6.62656,6.62656,0,0,1-1.46973-2.11914,6.3474,6.3474,0,0,1-.52637-2.57031,6.68821,6.68821,0,0,1,.51954-2.61817,6.60073,6.60073,0,0,1,1.46289-2.167,6.76645,6.76645,0,0,1,4.79882-1.95508,6.85718,6.85718,0,0,1,2.51563.46484,5.89314,5.89314,0,0,1,2.05078,1.32618,1.76115,1.76115,0,0,1,.54688,1.25781,1.38537,1.38537,0,0,1-.54688,1.10742,1.7939,1.7939,0,0,1-.499.29395,1.367,1.367,0,0,1-.48535.10254,1.61872,1.61872,0,0,1-.86133-.27344q-.20508-.123-.72461-.51953a3.47386,3.47386,0,0,0-1.08008-.52637,4.635,4.635,0,0,0-1.20312-.14356,3.21223,3.21223,0,0,0-1.32618.335,3.70645,3.70645,0,0,0-1.08008.81347,3.93034,3.93034,0,0,0-.71093,1.1416,3.39461,3.39461,0,0,0-.25977,1.292,3.53122,3.53122,0,0,0,.25977,1.31933,3.75033,3.75033,0,0,0,.72461,1.15527,3.5376,3.5376,0,0,0,1.12793.82032,3.23344,3.23344,0,0,0,1.374.30078,4.17455,4.17455,0,0,0,1.12793-.14356,3.3751,3.3751,0,0,0,1.0459-.52636q.10986-.082.417-.30762a3.37179,3.37179,0,0,1,.59473-.35547,1.40869,1.40869,0,0,1,.58789-.12988,1.36415,1.36415,0,0,1,.50586.10937,1.69249,1.69249,0,0,1,.49218.30078,1.38409,1.38409,0,0,1,.51954,1.08008,1.70063,1.70063,0,0,1-.13672.65625,1.854,1.854,0,0,1-.41016.60157,5.89325,5.89325,0,0,1-2.05078,1.32617,6.85718,6.85718,0,0,1-2.51563.46484A6.927,6.927,0,0,1,53.90332,77.33887Z"/><path class="cls-1" d="M73.91211,77.27734a1.38568,1.38568,0,0,1-.45117-1.05273v-5.25a4.1827,4.1827,0,0,0-.21875-1.35352,3.20889,3.20889,0,0,0-.62891-1.10742,2.98788,2.98788,0,0,0-1.00488-.74512,3.0298,3.0298,0,0,0-1.27832-.2666,4.07331,4.07331,0,0,0-1.415.25293,4.40364,4.40364,0,0,0-1.251.7041,3.56243,3.56243,0,0,0-.90918,1.08692,2.71266,2.71266,0,0,0-.335,1.30566v5.31836a1.46616,1.46616,0,0,1-.4375,1.08008,1.45092,1.45092,0,0,1-1.0664.4375,1.48322,1.48322,0,0,1-1.09375-.4375,1.46612,1.46612,0,0,1-.4375-1.08008V61.18555a1.489,1.489,0,0,1,.45117-1.09375,1.46611,1.46611,0,0,1,1.08008-.4375,1.45088,1.45088,0,0,1,1.0664.4375,1.48322,1.48322,0,0,1,.4375,1.09375v5.05859a5.94357,5.94357,0,0,1,1.81153-1.292,4.99827,4.99827,0,0,1,2.09863-.458,6.0954,6.0954,0,0,1,2.44043.49219,5.76916,5.76916,0,0,1,1.97558,1.39453,6.35508,6.35508,0,0,1,1.292,2.07129,6.8787,6.8787,0,0,1,.458,2.50879v5.26367a1.38568,1.38568,0,0,1-.45117,1.05273,1.47785,1.47785,0,0,1-.48535.32129,1.50884,1.50884,0,0,1-.581.11621A1.45089,1.45089,0,0,1,73.91211,77.27734Z"/><path class="cls-1" d="M82.59375,77.31836a6.72778,6.72778,0,0,1-3.5752-3.5752,6.65841,6.65841,0,0,1,.00684-5.14062,6.8735,6.8735,0,0,1,1.43555-2.15332,6.71681,6.71681,0,0,1,2.13281-1.43555,6.60728,6.60728,0,0,1,5.12012-.00683,6.68733,6.68733,0,0,1,2.13965,1.44238,6.78545,6.78545,0,0,1,1.42871,2.14648,6.58889,6.58889,0,0,1,.51269,2.584v5.07226a1.489,1.489,0,0,1-.45117,1.09375,1.44131,1.44131,0,0,1-1.09375.46485,1.4351,1.4351,0,0,1-1.43555-1.08008,6.5892,6.5892,0,0,1-6.2207.58789Zm3.958-2.7959a3.63619,3.63619,0,0,0,1.16894-.78613,3.6836,3.6836,0,0,0,.76563-1.16211,3.69274,3.69274,0,0,0,0-2.78906,3.68348,3.68348,0,0,0-.76563-1.16211,3.574,3.574,0,0,0-1.16211-.77246,3.61689,3.61689,0,0,0-1.4082-.28028,3.6014,3.6014,0,0,0-3.32227,2.21485,3.61546,3.61546,0,0,0,.7793,3.95117,3.52452,3.52452,0,0,0,2.543,1.0664A3.56953,3.56953,0,0,0,86.55176,74.52246Z"/></g><g id="Layer_1" data-name="Layer 1"><path class="cls-2" d="M66.25532,35.72487v7.46667a.26667.26667,0,0,1-.26667.26667H63.05532V42.12487a.26667.26667,0,0,1,.26667-.26666h1.06666a.26667.26667,0,0,0,.26667-.26667V35.45821h1.33333A.26667.26667,0,0,1,66.25532,35.72487Z"/><path class="cls-2" d="M37.183,42.12487v1.33334H34.24965a.26667.26667,0,0,1-.26667-.26667V35.72487a.26667.26667,0,0,1,.26667-.26666H35.583v6.13333a.26667.26667,0,0,0,.26667.26667h1.06666A.26667.26667,0,0,1,37.183,42.12487Z"/><path class="cls-3" d="M58.8,27.72487v1.06667a.26667.26667,0,0,1-.26667.26667H54.26667A.26667.26667,0,0,0,54,29.32487v1.06667a.26667.26667,0,0,1-.26667.26667H52.66667a.26667.26667,0,0,0-.26667.26666v1.06667a.26667.26667,0,0,1-.26667.26667H51.06667a.26667.26667,0,0,0-.26667.26666v1.06667a.26667.26667,0,0,1-.26667.26667H49.46667A.26667.26667,0,0,1,49.2,33.59154V32.52487a.26667.26667,0,0,0-.26667-.26666H47.86667A.26667.26667,0,0,1,47.6,31.99154V30.92487a.26667.26667,0,0,0-.26667-.26666H46.26667A.26667.26667,0,0,1,46,30.39154V29.32487a.26667.26667,0,0,0-.26667-.26666H41.46667A.26667.26667,0,0,1,41.2,28.79154V27.72487a.26667.26667,0,0,0-.26667-.26666H30.26667A.26667.26667,0,0,0,30,27.72487v1.06667a.26667.26667,0,0,0,.26667.26667h2.66666a.26667.26667,0,0,1,.26667.26666v1.06667a.26667.26667,0,0,0,.26667.26667h1.06666a.26667.26667,0,0,1,.26667.26666v1.33334h1.33333a.26667.26667,0,0,1,.26667.26666v2.66667a.26667.26667,0,0,1-.26667.26667H35.06667a.26667.26667,0,0,0-.26667.26666v5.86667a.26667.26667,0,0,0,.26667.26667h1.06666a.26667.26667,0,0,1,.26667.26666v1.06667a.26667.26667,0,0,0,.26667.26667h1.06666A.26667.26667,0,0,1,38,43.72487v1.06667a.26667.26667,0,0,0,.26667.26667h5.86666A.26667.26667,0,0,0,44.4,44.79154V43.72487a.26667.26667,0,0,1,.26667-.26666h2.66666A.26667.26667,0,0,0,47.6,43.19154V42.12487a.26667.26667,0,0,1,.26667-.26666h1.06666A.26667.26667,0,0,0,49.2,41.59154V40.52487a.26667.26667,0,0,1,.26667-.26666h1.06666a.26667.26667,0,0,1,.26667.26666v1.06667a.26667.26667,0,0,0,.26667.26667h1.06666a.26667.26667,0,0,1,.26667.26666v1.06667a.26667.26667,0,0,0,.26667.26667h2.66666a.26667.26667,0,0,1,.26667.26666v1.06667a.26667.26667,0,0,0,.26667.26667h5.86666A.26667.26667,0,0,0,62,44.79154V43.72487a.26667.26667,0,0,1,.26667-.26666h1.06666A.26667.26667,0,0,0,63.6,43.19154V42.12487a.26667.26667,0,0,1,.26667-.26666h1.06666A.26667.26667,0,0,0,65.2,41.59154V35.72487a.26667.26667,0,0,0-.26667-.26666H63.86667A.26667.26667,0,0,1,63.6,35.19154V32.52487a.26667.26667,0,0,1,.26667-.26666H65.2V30.92487a.26667.26667,0,0,1,.26667-.26666h1.06666A.26667.26667,0,0,0,66.8,30.39154V29.32487a.26667.26667,0,0,1,.26667-.26666h2.66666A.26667.26667,0,0,0,70,28.79154V27.72487a.26667.26667,0,0,0-.26667-.26666H59.06667A.26667.26667,0,0,0,58.8,27.72487Z"/><path class="cls-4" d="M62,43.72487v1.06667a.26667.26667,0,0,1-.26667.26667H55.86667A.26667.26667,0,0,1,55.6,44.79154V43.72487a.26667.26667,0,0,0-.26667-.26666H52.66667A.26667.26667,0,0,1,52.4,43.19154V42.12487a.26667.26667,0,0,0-.26667-.26666H51.06667A.26667.26667,0,0,1,50.8,41.59154V40.52487a.26667.26667,0,0,0-.26667-.26666H49.46667a.26667.26667,0,0,0-.26667.26666v1.06667a.26667.26667,0,0,1-.26667.26667H47.86667a.26667.26667,0,0,0-.26667.26666v1.06667a.26667.26667,0,0,1-.26667.26667H44.66667a.26667.26667,0,0,0-.26667.26666v1.06667a.26667.26667,0,0,1-.26667.26667H38.26667A.26667.26667,0,0,1,38,44.79154V43.72487a.26667.26667,0,0,0-.26667-.26666H34.8v2.93333a.26667.26667,0,0,0,.26667.26667h1.06666a.26667.26667,0,0,1,.26667.26666v1.06667a.26667.26667,0,0,0,.26667.26667h1.06666A.26667.26667,0,0,1,38,48.52487v1.06667a.26667.26667,0,0,0,.26667.26667h1.06666a.26667.26667,0,0,1,.26667.26666v1.06667a.26667.26667,0,0,0,.26667.26667h1.06666a.26667.26667,0,0,1,.26667.26666v1.06667a.26667.26667,0,0,0,.26667.26667h4.26666A.26667.26667,0,0,1,46,53.32487v1.06667a.26667.26667,0,0,0,.26667.26667h7.46666A.26667.26667,0,0,0,54,54.39154V53.32487a.26667.26667,0,0,1,.26667-.26666h4.26666A.26667.26667,0,0,0,58.8,52.79154V51.72487a.26667.26667,0,0,1,.26667-.26666h1.06666A.26667.26667,0,0,0,60.4,51.19154V50.12487a.26667.26667,0,0,1,.26667-.26666h1.06666A.26667.26667,0,0,0,62,49.59154V48.52487a.26667.26667,0,0,1,.26667-.26666h1.06666A.26667.26667,0,0,0,63.6,47.99154V46.92487a.26667.26667,0,0,1,.26667-.26666h1.06666A.26667.26667,0,0,0,65.2,46.39154V43.45821H62.26667A.26667.26667,0,0,0,62,43.72487Zm-6.66667,4.53334H54v1.33333a.26667.26667,0,0,1-.26667.26667H46.26667A.26667.26667,0,0,1,46,49.59154V48.25821H44.66667A.26667.26667,0,0,1,44.4,47.99154V46.92487a.26667.26667,0,0,1,.26667-.26666h1.06666A.26667.26667,0,0,1,46,46.92487v1.33334h2.93333A.26667.26667,0,0,0,49.2,47.99154V46.92487a.26667.26667,0,0,0-.26667-.26666H47.86667A.26667.26667,0,0,1,47.6,46.39154V45.32487a.26667.26667,0,0,1,.26667-.26666h4.26666a.26667.26667,0,0,1,.26667.26666v1.06667a.26667.26667,0,0,1-.26667.26667H51.06667a.26667.26667,0,0,0-.26667.26666v1.06667a.26667.26667,0,0,0,.26667.26667H54V46.92487a.26667.26667,0,0,1,.26667-.26666h1.06666a.26667.26667,0,0,1,.26667.26666v1.06667A.26667.26667,0,0,1,55.33333,48.25821Z"/><path class="cls-2" d="M63.6,18.12487v9.33334H59.06667a.26667.26667,0,0,0-.26667.26666v1.06667a.26667.26667,0,0,1-.26667.26667H54.26667A.26667.26667,0,0,0,54,29.32487v1.06667a.26667.26667,0,0,1-.26667.26667H52.66667a.26667.26667,0,0,0-.26667.26666v1.06667a.26667.26667,0,0,1-.26667.26667H51.06667a.26667.26667,0,0,0-.26667.26666v1.06667a.26667.26667,0,0,1-.26667.26667H49.46667A.26667.26667,0,0,1,49.2,33.59154V32.52487a.26667.26667,0,0,0-.26667-.26666H47.86667A.26667.26667,0,0,1,47.6,31.99154V30.92487a.26667.26667,0,0,0-.26667-.26666H46.26667A.26667.26667,0,0,1,46,30.39154V29.32487a.26667.26667,0,0,0-.26667-.26666H41.46667A.26667.26667,0,0,1,41.2,28.79154V27.72487a.26667.26667,0,0,0-.26667-.26666H36.4V18.12487a.26667.26667,0,0,1,.26667-.26666h1.06666A.26667.26667,0,0,0,38,17.59154V13.32487a.26667.26667,0,0,1,.26667-.26666h1.06666a.26667.26667,0,0,1,.26667.26666v1.06667a.26667.26667,0,0,0,.26667.26667h1.06666a.26667.26667,0,0,1,.26667.26666v1.06667a.26667.26667,0,0,0,.26667.26667h1.06666a.26667.26667,0,0,1,.26667.26666v2.66667a.26667.26667,0,0,0,.26667.26667h1.06666a.26667.26667,0,0,1,.26667.26666v2.66667a.26667.26667,0,0,0,.26667.26667H55.33333A.26667.26667,0,0,0,55.6,22.39154V19.72487a.26667.26667,0,0,1,.26667-.26666h1.06666A.26667.26667,0,0,0,57.2,19.19154V16.52487a.26667.26667,0,0,1,.26667-.26666h1.06666A.26667.26667,0,0,0,58.8,15.99154V14.92487a.26667.26667,0,0,1,.26667-.26666h1.06666A.26667.26667,0,0,0,60.4,14.39154V13.32487a.26667.26667,0,0,1,.26667-.26666h1.06666A.26667.26667,0,0,1,62,13.32487v4.26667a.26667.26667,0,0,0,.26667.26667h1.06666A.26667.26667,0,0,1,63.6,18.12487Z"/><path class="cls-2" d="M36.4,32.52487v2.66667a.26667.26667,0,0,1-.26667.26667H34.8v-3.2h1.33333A.26667.26667,0,0,1,36.4,32.52487Z"/><path class="cls-2" d="M65.2,32.25821v3.2H63.86667A.26667.26667,0,0,1,63.6,35.19154V32.52487a.26667.26667,0,0,1,.26667-.26666Z"/><path class="cls-2" d="M66.8,35.72487v7.46667a.26667.26667,0,0,1-.26667.26667H63.6V42.12487a.26667.26667,0,0,1,.26667-.26666h1.06666A.26667.26667,0,0,0,65.2,41.59154V35.45821h1.33333A.26667.26667,0,0,1,66.8,35.72487Z"/><path class="cls-2" d="M36.4,42.12487v1.33334H33.46667A.26667.26667,0,0,1,33.2,43.19154V35.72487a.26667.26667,0,0,1,.26667-.26666H34.8v6.13333a.26667.26667,0,0,0,.26667.26667h1.06666A.26667.26667,0,0,1,36.4,42.12487Z"/><path class="cls-2" d="M47.6,35.19154V34.12487a.26667.26667,0,0,0-.26667-.26666H46.26667A.26667.26667,0,0,1,46,33.59154V32.52487a.26667.26667,0,0,0-.26667-.26666H44.66667A.26667.26667,0,0,1,44.4,31.99154V30.92487a.26667.26667,0,0,0-.26667-.26666H39.86667A.26667.26667,0,0,1,39.6,30.39154V29.32487a.26667.26667,0,0,0-.26667-.26666H36.66667a.26667.26667,0,0,0-.26667.26666v1.06667a.26667.26667,0,0,0,.26667.26667h1.06666A.26667.26667,0,0,1,38,30.92487v5.86667a.26667.26667,0,0,1-.26667.26667H36.66667a.26667.26667,0,0,0-.26667.26666v2.66667a.26667.26667,0,0,0,.26667.26667h1.06666A.26667.26667,0,0,1,38,40.52487v1.06667a.26667.26667,0,0,0,.26667.26667h1.06666a.26667.26667,0,0,1,.26667.26666v1.06667a.26667.26667,0,0,0,.26667.26667h2.66666A.26667.26667,0,0,0,42.8,43.19154V42.12487a.26667.26667,0,0,1,.26667-.26666h2.66666A.26667.26667,0,0,0,46,41.59154V40.52487a.26667.26667,0,0,1,.26667-.26666h1.06666A.26667.26667,0,0,0,47.6,39.99154V38.92487a.26667.26667,0,0,1,.26667-.26666h1.06666A.26667.26667,0,0,0,49.2,38.39154V35.72487a.26667.26667,0,0,0-.26667-.26666H47.86667A.26667.26667,0,0,1,47.6,35.19154Zm-1.86667,3.46667H39.86667A.26667.26667,0,0,1,39.6,38.39154V37.32487a.26667.26667,0,0,1,.26667-.26666h1.06666A.26667.26667,0,0,0,41.2,36.79154V35.72487a.26667.26667,0,0,1,.26667-.26666h2.66666a.26667.26667,0,0,1,.26667.26666v1.06667a.26667.26667,0,0,0,.26667.26667h1.06666A.26667.26667,0,0,1,46,37.32487v1.06667A.26667.26667,0,0,1,45.73333,38.65821Z"/><path class="cls-2" d="M62.26525,30.65821h1.0695A.26525.26525,0,0,0,63.6,30.393V29.32345a.26525.26525,0,0,0-.26525-.26524h-2.6695a.26525.26525,0,0,0-.26525.26524V30.393a.26525.26525,0,0,1-.26525.26525h-4.2695a.26525.26525,0,0,0-.26525.26524V31.993a.26525.26525,0,0,1-.26525.26525h-1.0695A.26525.26525,0,0,0,54,32.52345V33.593a.26525.26525,0,0,1-.26525.26525h-1.0695a.26525.26525,0,0,0-.26525.26524V35.193a.26525.26525,0,0,1-.26525.26525h-1.0695a.26525.26525,0,0,0-.26525.26524V38.393a.26525.26525,0,0,0,.26525.26525h1.0695a.26525.26525,0,0,1,.26525.26524V39.993a.26525.26525,0,0,0,.26525.26525h1.0695A.26525.26525,0,0,1,54,40.52345V41.593a.26525.26525,0,0,0,.26525.26525h2.6695a.26525.26525,0,0,1,.26525.26524V43.193a.26525.26525,0,0,0,.26525.26525h2.6695A.26525.26525,0,0,0,60.4,43.193V42.12345a.26525.26525,0,0,1,.26525-.26524h1.0695A.26525.26525,0,0,0,62,41.593V40.52345a.26525.26525,0,0,1,.26525-.26524h1.0695A.26525.26525,0,0,0,63.6,39.993V37.32345a.26525.26525,0,0,0-.26525-.26524h-1.0695A.26525.26525,0,0,1,62,36.793V30.92345A.26525.26525,0,0,1,62.26525,30.65821Zm-2.1305,8h-5.8695A.26525.26525,0,0,1,54,38.393V37.32345a.26525.26525,0,0,1,.26525-.26524h1.0695A.26525.26525,0,0,0,55.6,36.793V35.72345a.26525.26525,0,0,1,.26525-.26524h2.6695a.26525.26525,0,0,1,.26525.26524V36.793a.26525.26525,0,0,0,.26525.26525h1.0695a.26525.26525,0,0,1,.26525.26524V38.393A.26525.26525,0,0,1,60.13475,38.65821Z"/><path d="M60.4,37.327v1.06241a.2688.2688,0,0,1-.26879.2688H54.26879A.2688.2688,0,0,1,54,38.38941V37.327a.26879.26879,0,0,1,.26879-.26879h1.06242a.2688.2688,0,0,0,.26879-.2688V35.727a.26879.26879,0,0,1,.26879-.26879h2.66242A.26879.26879,0,0,1,58.8,35.727v1.06241a.2688.2688,0,0,0,.26879.2688h1.06242A.26879.26879,0,0,1,60.4,37.327Z"/><path d="M46,37.327v1.06241a.2688.2688,0,0,1-.26879.2688H39.86879a.2688.2688,0,0,1-.26879-.2688V37.327a.26879.26879,0,0,1,.26879-.26879h1.06242a.2688.2688,0,0,0,.26879-.2688V35.727a.26879.26879,0,0,1,.26879-.26879h2.66242A.26879.26879,0,0,1,44.4,35.727v1.06241a.2688.2688,0,0,0,.26879.2688h1.06242A.26879.26879,0,0,1,46,37.327Z"/><path d="M54,48.25821v1.33333a.26667.26667,0,0,1-.26667.26667H46.26667A.26667.26667,0,0,1,46,49.59154V48.25821h2.93333A.26667.26667,0,0,0,49.2,47.99154V46.92487a.26667.26667,0,0,0-.26667-.26666H47.86667A.26667.26667,0,0,1,47.6,46.39154V45.32487a.26667.26667,0,0,1,.26667-.26666h4.26666a.26667.26667,0,0,1,.26667.26666v1.06667a.26667.26667,0,0,1-.26667.26667H51.06667a.26667.26667,0,0,0-.26667.26666v1.06667a.26667.26667,0,0,0,.26667.26667Z"/><path d="M46,46.92487v1.33334H44.66667A.26667.26667,0,0,1,44.4,47.99154V46.92487a.26667.26667,0,0,1,.26667-.26666h1.06666A.26667.26667,0,0,1,46,46.92487Z"/><path d="M55.6,46.92487v1.06667a.26667.26667,0,0,1-.26667.26667H54V46.92487a.26667.26667,0,0,1,.26667-.26666h1.06666A.26667.26667,0,0,1,55.6,46.92487Z"/></g><g id="Layer_2" data-name="Layer 2"><path class="cls-2" d="M66.25532,35.72487v7.46667a.26667.26667,0,0,1-.26667.26667H63.05532V42.12487a.26667.26667,0,0,1,.26667-.26666h1.06666a.26667.26667,0,0,0,.26667-.26667V35.45821h1.33333A.26667.26667,0,0,1,66.25532,35.72487Z"/><path class="cls-2" d="M37.183,42.12487v1.33334H34.24965a.26667.26667,0,0,1-.26667-.26667V35.72487a.26667.26667,0,0,1,.26667-.26666H35.583v6.13333a.26667.26667,0,0,0,.26667.26667h1.06666A.26667.26667,0,0,1,37.183,42.12487Z"/><path class="cls-3" d="M58.8,27.72487v1.06667a.26667.26667,0,0,1-.26667.26667H54.26667A.26667.26667,0,0,0,54,29.32487v1.06667a.26667.26667,0,0,1-.26667.26667H52.66667a.26667.26667,0,0,0-.26667.26666v1.06667a.26667.26667,0,0,1-.26667.26667H51.06667a.26667.26667,0,0,0-.26667.26666v1.06667a.26667.26667,0,0,1-.26667.26667H49.46667A.26667.26667,0,0,1,49.2,33.59154V32.52487a.26667.26667,0,0,0-.26667-.26666H47.86667A.26667.26667,0,0,1,47.6,31.99154V30.92487a.26667.26667,0,0,0-.26667-.26666H46.26667A.26667.26667,0,0,1,46,30.39154V29.32487a.26667.26667,0,0,0-.26667-.26666H41.46667A.26667.26667,0,0,1,41.2,28.79154V27.72487a.26667.26667,0,0,0-.26667-.26666H30.26667A.26667.26667,0,0,0,30,27.72487v1.06667a.26667.26667,0,0,0,.26667.26667h2.66666a.26667.26667,0,0,1,.26667.26666v1.06667a.26667.26667,0,0,0,.26667.26667h1.06666a.26667.26667,0,0,1,.26667.26666v1.33334h1.33333a.26667.26667,0,0,1,.26667.26666v2.66667a.26667.26667,0,0,1-.26667.26667H35.06667a.26667.26667,0,0,0-.26667.26666v5.86667a.26667.26667,0,0,0,.26667.26667h1.06666a.26667.26667,0,0,1,.26667.26666v1.06667a.26667.26667,0,0,0,.26667.26667h1.06666A.26667.26667,0,0,1,38,43.72487v1.06667a.26667.26667,0,0,0,.26667.26667h5.86666A.26667.26667,0,0,0,44.4,44.79154V43.72487a.26667.26667,0,0,1,.26667-.26666h2.66666A.26667.26667,0,0,0,47.6,43.19154V42.12487a.26667.26667,0,0,1,.26667-.26666h1.06666A.26667.26667,0,0,0,49.2,41.59154V40.52487a.26667.26667,0,0,1,.26667-.26666h1.06666a.26667.26667,0,0,1,.26667.26666v1.06667a.26667.26667,0,0,0,.26667.26667h1.06666a.26667.26667,0,0,1,.26667.26666v1.06667a.26667.26667,0,0,0,.26667.26667h2.66666a.26667.26667,0,0,1,.26667.26666v1.06667a.26667.26667,0,0,0,.26667.26667h5.86666A.26667.26667,0,0,0,62,44.79154V43.72487a.26667.26667,0,0,1,.26667-.26666h1.06666A.26667.26667,0,0,0,63.6,43.19154V42.12487a.26667.26667,0,0,1,.26667-.26666h1.06666A.26667.26667,0,0,0,65.2,41.59154V35.72487a.26667.26667,0,0,0-.26667-.26666H63.86667A.26667.26667,0,0,1,63.6,35.19154V32.52487a.26667.26667,0,0,1,.26667-.26666H65.2V30.92487a.26667.26667,0,0,1,.26667-.26666h1.06666A.26667.26667,0,0,0,66.8,30.39154V29.32487a.26667.26667,0,0,1,.26667-.26666h2.66666A.26667.26667,0,0,0,70,28.79154V27.72487a.26667.26667,0,0,0-.26667-.26666H59.06667A.26667.26667,0,0,0,58.8,27.72487Z"/><path class="cls-4" d="M62,43.72487v1.06667a.26667.26667,0,0,1-.26667.26667H55.86667A.26667.26667,0,0,1,55.6,44.79154V43.72487a.26667.26667,0,0,0-.26667-.26666H52.66667A.26667.26667,0,0,1,52.4,43.19154V42.12487a.26667.26667,0,0,0-.26667-.26666H51.06667A.26667.26667,0,0,1,50.8,41.59154V40.52487a.26667.26667,0,0,0-.26667-.26666H49.46667a.26667.26667,0,0,0-.26667.26666v1.06667a.26667.26667,0,0,1-.26667.26667H47.86667a.26667.26667,0,0,0-.26667.26666v1.06667a.26667.26667,0,0,1-.26667.26667H44.66667a.26667.26667,0,0,0-.26667.26666v1.06667a.26667.26667,0,0,1-.26667.26667H38.26667A.26667.26667,0,0,1,38,44.79154V43.72487a.26667.26667,0,0,0-.26667-.26666H34.8v2.93333a.26667.26667,0,0,0,.26667.26667h1.06666a.26667.26667,0,0,1,.26667.26666v1.06667a.26667.26667,0,0,0,.26667.26667h1.06666A.26667.26667,0,0,1,38,48.52487v1.06667a.26667.26667,0,0,0,.26667.26667h1.06666a.26667.26667,0,0,1,.26667.26666v1.06667a.26667.26667,0,0,0,.26667.26667h1.06666a.26667.26667,0,0,1,.26667.26666v1.06667a.26667.26667,0,0,0,.26667.26667h4.26666A.26667.26667,0,0,1,46,53.32487v1.06667a.26667.26667,0,0,0,.26667.26667h7.46666A.26667.26667,0,0,0,54,54.39154V53.32487a.26667.26667,0,0,1,.26667-.26666h4.26666A.26667.26667,0,0,0,58.8,52.79154V51.72487a.26667.26667,0,0,1,.26667-.26666h1.06666A.26667.26667,0,0,0,60.4,51.19154V50.12487a.26667.26667,0,0,1,.26667-.26666h1.06666A.26667.26667,0,0,0,62,49.59154V48.52487a.26667.26667,0,0,1,.26667-.26666h1.06666A.26667.26667,0,0,0,63.6,47.99154V46.92487a.26667.26667,0,0,1,.26667-.26666h1.06666A.26667.26667,0,0,0,65.2,46.39154V43.45821H62.26667A.26667.26667,0,0,0,62,43.72487Z"/><path class="cls-2" d="M63.6,18.12487v9.33334H59.06667a.26667.26667,0,0,0-.26667.26666v1.06667a.26667.26667,0,0,1-.26667.26667H54.26667A.26667.26667,0,0,0,54,29.32487v1.06667a.26667.26667,0,0,1-.26667.26667H52.66667a.26667.26667,0,0,0-.26667.26666v1.06667a.26667.26667,0,0,1-.26667.26667H51.06667a.26667.26667,0,0,0-.26667.26666v1.06667a.26667.26667,0,0,1-.26667.26667H49.46667A.26667.26667,0,0,1,49.2,33.59154V32.52487a.26667.26667,0,0,0-.26667-.26666H47.86667A.26667.26667,0,0,1,47.6,31.99154V30.92487a.26667.26667,0,0,0-.26667-.26666H46.26667A.26667.26667,0,0,1,46,30.39154V29.32487a.26667.26667,0,0,0-.26667-.26666H41.46667A.26667.26667,0,0,1,41.2,28.79154V27.72487a.26667.26667,0,0,0-.26667-.26666H36.4V18.12487a.26667.26667,0,0,1,.26667-.26666h1.06666A.26667.26667,0,0,0,38,17.59154V13.32487a.26667.26667,0,0,1,.26667-.26666h1.06666a.26667.26667,0,0,1,.26667.26666v1.06667a.26667.26667,0,0,0,.26667.26667h1.06666a.26667.26667,0,0,1,.26667.26666v1.06667a.26667.26667,0,0,0,.26667.26667h1.06666a.26667.26667,0,0,1,.26667.26666v2.66667a.26667.26667,0,0,0,.26667.26667h1.06666a.26667.26667,0,0,1,.26667.26666v2.66667a.26667.26667,0,0,0,.26667.26667H55.33333A.26667.26667,0,0,0,55.6,22.39154V19.72487a.26667.26667,0,0,1,.26667-.26666h1.06666A.26667.26667,0,0,0,57.2,19.19154V16.52487a.26667.26667,0,0,1,.26667-.26666h1.06666A.26667.26667,0,0,0,58.8,15.99154V14.92487a.26667.26667,0,0,1,.26667-.26666h1.06666A.26667.26667,0,0,0,60.4,14.39154V13.32487a.26667.26667,0,0,1,.26667-.26666h1.06666A.26667.26667,0,0,1,62,13.32487v4.26667a.26667.26667,0,0,0,.26667.26667h1.06666A.26667.26667,0,0,1,63.6,18.12487Z"/><path class="cls-2" d="M36.4,32.52487v2.66667a.26667.26667,0,0,1-.26667.26667H34.8v-3.2h1.33333A.26667.26667,0,0,1,36.4,32.52487Z"/><path class="cls-2" d="M65.2,32.25821v3.2H63.86667A.26667.26667,0,0,1,63.6,35.19154V32.52487a.26667.26667,0,0,1,.26667-.26666Z"/><path class="cls-2" d="M66.8,35.72487v7.46667a.26667.26667,0,0,1-.26667.26667H63.6V42.12487a.26667.26667,0,0,1,.26667-.26666h1.06666A.26667.26667,0,0,0,65.2,41.59154V35.45821h1.33333A.26667.26667,0,0,1,66.8,35.72487Z"/><path class="cls-2" d="M36.4,42.12487v1.33334H33.46667A.26667.26667,0,0,1,33.2,43.19154V35.72487a.26667.26667,0,0,1,.26667-.26666H34.8v6.13333a.26667.26667,0,0,0,.26667.26667h1.06666A.26667.26667,0,0,1,36.4,42.12487Z"/><path class="cls-2" d="M47.6,35.19154V34.12487a.26667.26667,0,0,0-.26667-.26666H46.26667A.26667.26667,0,0,1,46,33.59154V32.52487a.26667.26667,0,0,0-.26667-.26666H44.66667A.26667.26667,0,0,1,44.4,31.99154V30.92487a.26667.26667,0,0,0-.26667-.26666H39.86667A.26667.26667,0,0,1,39.6,30.39154V29.32487a.26667.26667,0,0,0-.26667-.26666H36.66667a.26667.26667,0,0,0-.26667.26666v1.06667a.26667.26667,0,0,0,.26667.26667h1.06666A.26667.26667,0,0,1,38,30.92487v5.86667a.26667.26667,0,0,1-.26667.26667H36.66667a.26667.26667,0,0,0-.26667.26666v2.66667a.26667.26667,0,0,0,.26667.26667h1.06666A.26667.26667,0,0,1,38,40.52487v1.06667a.26667.26667,0,0,0,.26667.26667h1.06666a.26667.26667,0,0,1,.26667.26666v1.06667a.26667.26667,0,0,0,.26667.26667h2.66666A.26667.26667,0,0,0,42.8,43.19154V42.12487a.26667.26667,0,0,1,.26667-.26666h2.66666A.26667.26667,0,0,0,46,41.59154V40.52487a.26667.26667,0,0,1,.26667-.26666h1.06666A.26667.26667,0,0,0,47.6,39.99154V38.92487a.26667.26667,0,0,1,.26667-.26666h1.06666A.26667.26667,0,0,0,49.2,38.39154V35.72487a.26667.26667,0,0,0-.26667-.26666H47.86667A.26667.26667,0,0,1,47.6,35.19154Zm-1.86667,3.46667H39.86667A.26667.26667,0,0,1,39.6,38.39154V37.32487a.26667.26667,0,0,1,.26667-.26666h1.06666A.26667.26667,0,0,0,41.2,36.79154V35.72487a.26667.26667,0,0,1,.26667-.26666h2.66666a.26667.26667,0,0,1,.26667.26666v1.06667a.26667.26667,0,0,0,.26667.26667h1.06666A.26667.26667,0,0,1,46,37.32487v1.06667A.26667.26667,0,0,1,45.73333,38.65821Z"/><path class="cls-2" d="M62.26525,30.65821h1.0695A.26525.26525,0,0,0,63.6,30.393V29.32345a.26525.26525,0,0,0-.26525-.26524h-2.6695a.26525.26525,0,0,0-.26525.26524V30.393a.26525.26525,0,0,1-.26525.26525h-4.2695a.26525.26525,0,0,0-.26525.26524V31.993a.26525.26525,0,0,1-.26525.26525h-1.0695A.26525.26525,0,0,0,54,32.52345V33.593a.26525.26525,0,0,1-.26525.26525h-1.0695a.26525.26525,0,0,0-.26525.26524V35.193a.26525.26525,0,0,1-.26525.26525h-1.0695a.26525.26525,0,0,0-.26525.26524V38.393a.26525.26525,0,0,0,.26525.26525h1.0695a.26525.26525,0,0,1,.26525.26524V39.993a.26525.26525,0,0,0,.26525.26525h1.0695A.26525.26525,0,0,1,54,40.52345V41.593a.26525.26525,0,0,0,.26525.26525h2.6695a.26525.26525,0,0,1,.26525.26524V43.193a.26525.26525,0,0,0,.26525.26525h2.6695A.26525.26525,0,0,0,60.4,43.193V42.12345a.26525.26525,0,0,1,.26525-.26524h1.0695A.26525.26525,0,0,0,62,41.593V40.52345a.26525.26525,0,0,1,.26525-.26524h1.0695A.26525.26525,0,0,0,63.6,39.993V37.32345a.26525.26525,0,0,0-.26525-.26524h-1.0695A.26525.26525,0,0,1,62,36.793V30.92345A.26525.26525,0,0,1,62.26525,30.65821Zm-2.1305,8h-5.8695A.26525.26525,0,0,1,54,38.393V37.32345a.26525.26525,0,0,1,.26525-.26524h1.0695A.26525.26525,0,0,0,55.6,36.793V35.72345a.26525.26525,0,0,1,.26525-.26524h2.6695a.26525.26525,0,0,1,.26525.26524V36.793a.26525.26525,0,0,0,.26525.26525h1.0695a.26525.26525,0,0,1,.26525.26524V38.393A.26525.26525,0,0,1,60.13475,38.65821Z"/><path d="M60.4,37.327v1.06241a.2688.2688,0,0,1-.26879.2688H54.26879A.2688.2688,0,0,1,54,38.38941V37.327a.26879.26879,0,0,1,.26879-.26879h1.06242a.2688.2688,0,0,0,.26879-.2688V35.727a.26879.26879,0,0,1,.26879-.26879h2.66242A.26879.26879,0,0,1,58.8,35.727v1.06241a.2688.2688,0,0,0,.26879.2688h1.06242A.26879.26879,0,0,1,60.4,37.327Z"/><path d="M46,37.327v1.06241a.2688.2688,0,0,1-.26879.2688H39.86879a.2688.2688,0,0,1-.26879-.2688V37.327a.26879.26879,0,0,1,.26879-.26879h1.06242a.2688.2688,0,0,0,.26879-.2688V35.727a.26879.26879,0,0,1,.26879-.26879h2.66242A.26879.26879,0,0,1,44.4,35.727v1.06241a.2688.2688,0,0,0,.26879.2688h1.06242A.26879.26879,0,0,1,46,37.327Z"/></g></svg>