<svg width="193" height="187" viewBox="0 0 193 187" fill="none" xmlns="http://www.w3.org/2000/svg">
<path d="M169.336 101.891V135.455C169.336 135.613 169.306 135.768 169.246 135.914C169.186 136.059 169.099 136.191 168.989 136.303C168.879 136.414 168.748 136.502 168.604 136.563C168.46 136.623 168.306 136.654 168.15 136.654H155.096V130.66C155.096 130.342 155.221 130.037 155.444 129.813C155.667 129.588 155.968 129.462 156.283 129.462H161.03C161.344 129.462 161.646 129.335 161.869 129.11C162.091 128.886 162.216 128.581 162.216 128.263V100.692H168.15C168.464 100.692 168.766 100.819 168.989 101.043C169.211 101.268 169.336 101.573 169.336 101.891Z" fill="#EEC39A"/>
<path d="M39.9645 130.66V136.654H26.911C26.5963 136.654 26.2945 136.528 26.0719 136.303C25.8494 136.078 25.7244 135.773 25.7244 135.455V101.891C25.7244 101.573 25.8494 101.268 26.072 101.043C26.2945 100.819 26.5963 100.692 26.911 100.692H32.8445V128.263C32.8445 128.581 32.9695 128.886 33.192 129.11C33.4146 129.335 33.7164 129.462 34.0311 129.462H38.7778C39.0925 129.462 39.3943 129.588 39.6169 129.813C39.8394 130.037 39.9644 130.342 39.9645 130.66Z" fill="#EEC39A"/>
<path d="M136.16 65.9295V70.7244C136.16 71.0423 136.035 71.3472 135.812 71.572C135.59 71.7968 135.288 71.9231 134.973 71.9231H115.987C115.672 71.9231 115.37 72.0494 115.148 72.2742C114.925 72.499 114.8 72.8039 114.8 73.1218V77.9167C114.8 78.0741 114.769 78.23 114.71 78.3754C114.65 78.5208 114.563 78.653 114.452 78.7643C114.342 78.8756 114.211 78.9639 114.067 79.0241C113.923 79.0844 113.769 79.1154 113.613 79.1154H108.867C108.552 79.1154 108.25 79.2417 108.028 79.4665C107.805 79.6913 107.68 79.9962 107.68 80.3141V85.109C107.68 85.4269 107.555 85.7318 107.332 85.9566C107.11 86.1814 106.808 86.3077 106.493 86.3077H101.747C101.432 86.3077 101.13 86.434 100.908 86.6588C100.685 86.8836 100.56 87.1885 100.56 87.5064V92.3013C100.56 92.6192 100.435 92.9241 100.212 93.1489C99.9899 93.3737 99.688 93.5 99.3733 93.5H94.6267C94.312 93.5 94.0101 93.3737 93.7876 93.1489C93.565 92.9241 93.44 92.6192 93.44 92.3013V87.5064C93.44 87.1885 93.315 86.8836 93.0924 86.6588C92.8699 86.434 92.568 86.3077 92.2533 86.3077H87.5067C87.1919 86.3077 86.8901 86.1814 86.6676 85.9566C86.445 85.7318 86.32 85.4269 86.32 85.109V80.3141C86.32 79.9962 86.1949 79.6913 85.9724 79.4665C85.7499 79.2417 85.448 79.1154 85.1333 79.1154H80.3867C80.072 79.1154 79.7701 78.9891 79.5476 78.7643C79.325 78.5395 79.2 78.2346 79.2 77.9167V73.1218C79.2 72.8039 79.075 72.499 78.8524 72.2742C78.6299 72.0494 78.328 71.9231 78.0133 71.9231H59.0267C58.712 71.9231 58.4101 71.7968 58.1876 71.572C57.965 71.3472 57.84 71.0423 57.84 70.7244V65.9295C57.84 65.6115 57.715 65.3067 57.4924 65.0819C57.2699 64.8571 56.968 64.7308 56.6533 64.7308H9.18668C8.87196 64.7308 8.57013 64.8571 8.34759 65.0819C8.12504 65.3067 8.00001 65.6115 8 65.9295V70.7244C8 70.8818 8.0307 71.0377 8.09033 71.1831C8.14997 71.3285 8.23738 71.4607 8.34757 71.572C8.45776 71.6833 8.58858 71.7716 8.73256 71.8318C8.87653 71.8921 9.03085 71.9231 9.18668 71.9231H21.0533C21.368 71.9231 21.6699 72.0494 21.8924 72.2742C22.115 72.499 22.24 72.8039 22.24 73.1218V77.9167C22.24 78.0741 22.2707 78.23 22.3303 78.3754C22.39 78.5208 22.4774 78.653 22.5876 78.7643C22.6978 78.8756 22.8286 78.9639 22.9726 79.0241C23.1165 79.0844 23.2708 79.1154 23.4267 79.1154H28.1733C28.488 79.1154 28.7899 79.2417 29.0124 79.4665C29.235 79.6913 29.36 79.9962 29.36 80.3141V86.3077H35.2933C35.608 86.3077 35.9099 86.434 36.1324 86.6588C36.355 86.8836 36.48 87.1885 36.48 87.5064V99.4936C36.48 99.8115 36.355 100.116 36.1324 100.341C35.9099 100.566 35.6081 100.692 35.2933 100.692H30.5467C30.232 100.692 29.9301 100.819 29.7076 101.043C29.485 101.268 29.36 101.573 29.36 101.891V128.263C29.36 128.581 29.485 128.886 29.7076 129.11C29.9301 129.335 30.232 129.462 30.5467 129.462H35.2933C35.608 129.462 35.9099 129.588 36.1324 129.813C36.355 130.037 36.48 130.342 36.48 130.66V135.455C36.48 135.773 36.605 136.078 36.8276 136.303C37.0501 136.528 37.352 136.654 37.6667 136.654H42.4133C42.728 136.654 43.0299 136.78 43.2524 137.005C43.475 137.23 43.6 137.535 43.6 137.853V142.647C43.6 142.965 43.725 143.27 43.9476 143.495C44.1701 143.72 44.472 143.846 44.7867 143.846H70.8933C71.208 143.846 71.5099 143.72 71.7324 143.495C71.955 143.27 72.08 142.965 72.08 142.647V137.853C72.08 137.535 72.205 137.23 72.4276 137.005C72.6501 136.78 72.952 136.654 73.2667 136.654H85.1333C85.2891 136.654 85.4435 136.623 85.5874 136.563C85.7314 136.502 85.8622 136.414 85.9724 136.303C86.0826 136.191 86.17 136.059 86.2297 135.914C86.2893 135.768 86.32 135.613 86.32 135.455V130.66C86.32 130.342 86.445 130.037 86.6676 129.813C86.8901 129.588 87.192 129.462 87.5067 129.462H92.2533C92.568 129.462 92.8699 129.335 93.0924 129.11C93.315 128.886 93.44 128.581 93.44 128.263V123.468C93.44 123.15 93.565 122.845 93.7876 122.62C94.0101 122.396 94.312 122.269 94.6267 122.269H99.3733C99.688 122.269 99.9899 122.396 100.212 122.62C100.435 122.845 100.56 123.15 100.56 123.468V128.263C100.56 128.581 100.685 128.886 100.908 129.11C101.13 129.335 101.432 129.462 101.747 129.462H106.493C106.808 129.462 107.11 129.588 107.332 129.813C107.555 130.037 107.68 130.342 107.68 130.66V135.455C107.68 135.773 107.805 136.078 108.028 136.303C108.25 136.528 108.552 136.654 108.867 136.654H120.733C121.048 136.654 121.35 136.78 121.572 137.005C121.795 137.23 121.92 137.535 121.92 137.853V142.647C121.92 142.965 122.045 143.27 122.268 143.495C122.49 143.72 122.792 143.846 123.107 143.846H149.213C149.369 143.846 149.523 143.815 149.667 143.755C149.811 143.695 149.942 143.606 150.052 143.495C150.163 143.384 150.25 143.252 150.31 143.106C150.369 142.961 150.4 142.805 150.4 142.647V137.853C150.4 137.535 150.525 137.23 150.748 137.005C150.97 136.78 151.272 136.654 151.587 136.654H156.333C156.648 136.654 156.95 136.528 157.172 136.303C157.395 136.078 157.52 135.773 157.52 135.455V130.66C157.52 130.342 157.645 130.037 157.868 129.813C158.09 129.588 158.392 129.462 158.707 129.462H163.453C163.768 129.462 164.07 129.335 164.292 129.11C164.515 128.886 164.64 128.581 164.64 128.263V101.891C164.64 101.573 164.515 101.268 164.292 101.043C164.07 100.819 163.768 100.692 163.453 100.692H158.707C158.392 100.692 158.09 100.566 157.868 100.341C157.645 100.116 157.52 99.8115 157.52 99.4936V87.5064C157.52 87.1885 157.645 86.8836 157.868 86.6588C158.09 86.434 158.392 86.3077 158.707 86.3077H164.64V80.3141C164.64 79.9962 164.765 79.6913 164.988 79.4665C165.21 79.2417 165.512 79.1154 165.827 79.1154H170.573C170.888 79.1154 171.19 78.9891 171.412 78.7643C171.635 78.5395 171.76 78.2346 171.76 77.9167V73.1218C171.76 72.8039 171.885 72.499 172.108 72.2742C172.33 72.0494 172.632 71.9231 172.947 71.9231H184.813C185.128 71.9231 185.43 71.7968 185.652 71.572C185.875 71.3472 186 71.0423 186 70.7244V65.9295C186 65.6115 185.875 65.3067 185.652 65.0819C185.43 64.8571 185.128 64.7308 184.813 64.7308H137.347C137.032 64.7308 136.73 64.8571 136.508 65.0819C136.285 65.3067 136.16 65.6115 136.16 65.9295Z" fill="#9674CE"/>
<path d="M150.4 137.853V142.647C150.4 142.965 150.275 143.27 150.052 143.495C149.83 143.72 149.528 143.846 149.213 143.846H123.106C122.792 143.846 122.49 143.72 122.267 143.495C122.045 143.27 121.92 142.965 121.92 142.647V137.853C121.92 137.535 121.795 137.23 121.572 137.005C121.349 136.78 121.048 136.654 120.733 136.654H108.866C108.552 136.654 108.25 136.528 108.027 136.303C107.805 136.078 107.68 135.773 107.68 135.455V130.66C107.68 130.342 107.555 130.037 107.332 129.813C107.11 129.588 106.808 129.462 106.493 129.462H101.746C101.432 129.462 101.13 129.335 100.907 129.11C100.685 128.886 100.56 128.581 100.56 128.263V123.468C100.56 123.15 100.435 122.845 100.212 122.62C99.9895 122.395 99.6877 122.269 99.3729 122.269H94.6263C94.3116 122.269 94.0098 122.395 93.7872 122.62C93.5647 122.845 93.4396 123.15 93.4396 123.468V128.263C93.4396 128.581 93.3146 128.886 93.0921 129.11C92.8695 129.335 92.5677 129.462 92.253 129.462H87.5063C87.1916 129.462 86.8898 129.588 86.6672 129.813C86.4447 130.037 86.3196 130.342 86.3196 130.66V135.455C86.3196 135.773 86.1946 136.078 85.9721 136.303C85.7495 136.528 85.4477 136.654 85.1329 136.654H73.2663C72.9516 136.654 72.6498 136.78 72.4272 137.005C72.2047 137.23 72.0796 137.535 72.0796 137.853V142.647C72.0796 142.965 71.9546 143.27 71.7321 143.495C71.5095 143.72 71.2077 143.846 70.893 143.846H44.7863C44.4716 143.846 44.1697 143.72 43.9472 143.495C43.7247 143.27 43.5996 142.965 43.5996 142.647V137.853C43.5996 137.535 43.4746 137.23 43.252 137.005C43.0295 136.78 42.7277 136.654 42.4129 136.654H29.3596V149.84C29.3596 150.158 29.4846 150.463 29.7072 150.687C29.9297 150.912 30.2316 151.038 30.5463 151.038H35.2929C35.6077 151.038 35.9095 151.165 36.132 151.39C36.3546 151.614 36.4796 151.919 36.4796 152.237V157.032C36.4796 157.35 36.6047 157.655 36.8272 157.88C37.0497 158.104 37.3516 158.231 37.6663 158.231H42.4129C42.7277 158.231 43.0295 158.357 43.252 158.582C43.4746 158.807 43.5996 159.112 43.5996 159.429V164.224C43.5996 164.542 43.7247 164.847 43.9472 165.072C44.1697 165.297 44.4716 165.423 44.7863 165.423H49.5329C49.8477 165.423 50.1495 165.549 50.372 165.774C50.5946 165.999 50.7196 166.304 50.7196 166.622V171.417C50.7196 171.735 50.8446 172.039 51.0672 172.264C51.2897 172.489 51.5916 172.615 51.9063 172.615H56.6529C56.9677 172.615 57.2695 172.742 57.492 172.966C57.7146 173.191 57.8396 173.496 57.8396 173.814V178.609C57.8396 178.927 57.9647 179.232 58.1872 179.457C58.4097 179.681 58.7116 179.808 59.0263 179.808H78.0129C78.3277 179.808 78.6295 179.934 78.852 180.159C79.0746 180.384 79.1996 180.688 79.1996 181.006V185.801C79.1996 186.119 79.3247 186.424 79.5472 186.649C79.7697 186.874 80.0716 187 80.3863 187H113.613C113.928 187 114.23 186.874 114.452 186.649C114.675 186.424 114.8 186.119 114.8 185.801V181.006C114.8 180.688 114.925 180.384 115.147 180.159C115.37 179.934 115.672 179.808 115.986 179.808H134.973C135.288 179.808 135.59 179.681 135.812 179.457C136.035 179.232 136.16 178.927 136.16 178.609V173.814C136.16 173.496 136.285 173.191 136.507 172.966C136.73 172.742 137.032 172.615 137.346 172.615H142.093C142.249 172.615 142.403 172.584 142.547 172.524C142.691 172.464 142.822 172.376 142.932 172.264C143.042 172.153 143.13 172.021 143.189 171.875C143.249 171.73 143.28 171.574 143.28 171.417V166.622C143.28 166.304 143.405 165.999 143.627 165.774C143.85 165.549 144.152 165.423 144.466 165.423H149.213C149.528 165.423 149.83 165.297 150.052 165.072C150.275 164.847 150.4 164.542 150.4 164.224V159.429C150.4 159.112 150.525 158.807 150.747 158.582C150.97 158.357 151.272 158.231 151.586 158.231H156.333C156.648 158.231 156.95 158.104 157.172 157.88C157.395 157.655 157.52 157.35 157.52 157.032V152.237C157.52 151.919 157.645 151.614 157.867 151.39C158.09 151.165 158.392 151.038 158.706 151.038H163.453C163.768 151.038 164.07 150.912 164.292 150.687C164.515 150.463 164.64 150.158 164.64 149.84V136.654H151.586C151.272 136.654 150.97 136.78 150.747 137.005C150.525 137.23 150.4 137.535 150.4 137.853Z" fill="#F9E5D3"/>
<path d="M157.52 22.7756V64.7308H137.347C137.032 64.7308 136.73 64.8571 136.508 65.0819C136.285 65.3067 136.16 65.6116 136.16 65.9295V70.7244C136.16 71.0423 136.035 71.3472 135.813 71.572C135.59 71.7968 135.288 71.9231 134.974 71.9231H115.987C115.672 71.9231 115.37 72.0494 115.148 72.2742C114.925 72.499 114.8 72.8039 114.8 73.1218V77.9167C114.8 78.0741 114.77 78.23 114.71 78.3754C114.65 78.5208 114.563 78.653 114.453 78.7643C114.342 78.8756 114.212 78.9639 114.068 79.0242C113.924 79.0844 113.769 79.1154 113.614 79.1154H108.867C108.552 79.1154 108.25 79.2417 108.028 79.4665C107.805 79.6913 107.68 79.9962 107.68 80.3141V85.109C107.68 85.4269 107.555 85.7318 107.333 85.9566C107.11 86.1814 106.808 86.3077 106.494 86.3077H101.747C101.432 86.3077 101.13 86.434 100.908 86.6588C100.685 86.8836 100.56 87.1885 100.56 87.5064V92.3013C100.56 92.6192 100.435 92.9241 100.213 93.1489C99.9901 93.3737 99.6883 93.5 99.3735 93.5H94.6269C94.3122 93.5 94.0103 93.3737 93.7878 93.1489C93.5653 92.9241 93.4402 92.6192 93.4402 92.3013V87.5064C93.4402 87.1885 93.3152 86.8836 93.0926 86.6588C92.8701 86.434 92.5683 86.3077 92.2535 86.3077H87.5069C87.1922 86.3077 86.8903 86.1814 86.6678 85.9566C86.4452 85.7318 86.3202 85.4269 86.3202 85.109V80.3141C86.3202 79.9962 86.1952 79.6913 85.9726 79.4665C85.7501 79.2417 85.4483 79.1154 85.1335 79.1154H80.3869C80.0722 79.1154 79.7703 78.9891 79.5478 78.7643C79.3252 78.5395 79.2002 78.2346 79.2002 77.9167V73.1218C79.2002 72.8039 79.0752 72.499 78.8526 72.2742C78.6301 72.0494 78.3283 71.9231 78.0135 71.9231H59.0269C58.7122 71.9231 58.4103 71.7968 58.1878 71.572C57.9652 71.3472 57.8402 71.0423 57.8402 70.7244V65.9295C57.8402 65.6116 57.7152 65.3067 57.4926 65.0819C57.2701 64.8571 56.9683 64.7308 56.6535 64.7308H36.4802V22.7756C36.4802 22.4577 36.6053 22.1528 36.8278 21.928C37.0504 21.7032 37.3522 21.5769 37.6669 21.5769H42.4135C42.7283 21.5769 43.0301 21.4506 43.2526 21.2258C43.4752 21.001 43.6002 20.6961 43.6002 20.3782V1.19869C43.6002 0.880771 43.7253 0.575881 43.9478 0.351084C44.1704 0.126288 44.4722 -2.23518e-10 44.7869 0H49.5335C49.8482 -2.23518e-10 50.1501 0.126288 50.3726 0.351084C50.5952 0.575881 50.7202 0.880771 50.7202 1.19869V5.99357C50.7202 6.3115 50.8452 6.6164 51.0678 6.84121C51.2903 7.06601 51.5922 7.19231 51.9069 7.19231H56.6535C56.9683 7.19231 57.2701 7.3186 57.4926 7.54339C57.7152 7.76819 57.8402 8.07308 57.8402 8.39099V13.1859C57.8402 13.5038 57.9652 13.8087 58.1878 14.0335C58.4103 14.2583 58.7122 14.3846 59.0269 14.3846H63.7735C64.0883 14.3846 64.3901 14.5109 64.6126 14.7357C64.8352 14.9605 64.9602 15.2654 64.9602 15.5833V27.5705C64.9602 27.8884 65.0852 28.1933 65.3078 28.4181C65.5303 28.6429 65.8322 28.7692 66.1469 28.7692H70.8935C71.2083 28.7692 71.5101 28.8955 71.7326 29.1203C71.9552 29.3451 72.0802 29.65 72.0802 29.9679V41.9551C72.0802 42.2731 72.2053 42.578 72.4278 42.8028C72.6503 43.0276 72.9522 43.1539 73.2669 43.1539H120.734C120.889 43.1539 121.044 43.1229 121.188 43.0626C121.332 43.0024 121.462 42.9141 121.573 42.8028C121.683 42.6914 121.77 42.5593 121.83 42.4139C121.89 42.2684 121.92 42.1125 121.92 41.9551V29.9679C121.92 29.65 122.045 29.3451 122.268 29.1203C122.49 28.8955 122.792 28.7692 123.107 28.7692H127.854C128.009 28.7692 128.164 28.7382 128.308 28.678C128.452 28.6177 128.582 28.5295 128.693 28.4181C128.803 28.3068 128.89 28.1747 128.95 28.0292C129.01 27.8838 129.04 27.7279 129.04 27.5705V15.5833C129.04 15.2654 129.165 14.9605 129.388 14.7357C129.61 14.5109 129.912 14.3846 130.227 14.3846H134.974C135.288 14.3846 135.59 14.2583 135.813 14.0335C136.035 13.8087 136.16 13.5038 136.16 13.1859V8.39099C136.16 8.07308 136.285 7.76819 136.508 7.54339C136.73 7.3186 137.032 7.19231 137.347 7.19231H142.094C142.249 7.19231 142.404 7.1613 142.548 7.10106C142.692 7.04082 142.822 6.95252 142.933 6.84121C143.043 6.72989 143.13 6.59775 143.19 6.45231C143.25 6.30687 143.28 6.15099 143.28 5.99357V1.19869C143.28 0.880771 143.405 0.575881 143.628 0.351084C143.85 0.126288 144.152 -2.23502e-10 144.467 0H149.214C149.528 -2.23518e-10 149.83 0.126288 150.053 0.351084C150.275 0.575881 150.4 0.880771 150.4 1.19869V20.3782C150.4 20.6961 150.525 21.001 150.748 21.2258C150.97 21.4506 151.272 21.5769 151.587 21.5769H156.334C156.648 21.5769 156.95 21.7032 157.173 21.928C157.395 22.1528 157.52 22.4577 157.52 22.7756Z" fill="#EEC39A"/>
<path d="M36.4796 87.5064V99.4936C36.4796 99.8115 36.3546 100.116 36.1321 100.341C35.9095 100.566 35.6077 100.692 35.2929 100.692H29.3596V86.3077H35.2929C35.6077 86.3077 35.9095 86.434 36.132 86.6588C36.3546 86.8836 36.4796 87.1885 36.4796 87.5064Z" fill="#EEC39A"/>
<path d="M164.64 86.3077V100.692H158.706C158.392 100.692 158.09 100.566 157.867 100.341C157.645 100.116 157.52 99.8115 157.52 99.4936V87.5064C157.52 87.1885 157.645 86.8836 157.867 86.6588C158.09 86.434 158.392 86.3077 158.706 86.3077H164.64Z" fill="#EEC39A"/>
<path d="M171.76 101.891V135.455C171.76 135.773 171.635 136.078 171.412 136.303C171.19 136.528 170.888 136.654 170.573 136.654H157.52V130.66C157.52 130.342 157.645 130.037 157.867 129.813C158.09 129.588 158.392 129.462 158.706 129.462H163.453C163.768 129.462 164.07 129.335 164.292 129.11C164.515 128.886 164.64 128.581 164.64 128.263V100.692H170.573C170.888 100.692 171.19 100.819 171.412 101.043C171.635 101.268 171.76 101.573 171.76 101.891Z" fill="#EEC39A"/>
<path d="M36.48 130.66V136.654H23.4267C23.1119 136.654 22.8101 136.528 22.5876 136.303C22.365 136.078 22.24 135.773 22.24 135.455V101.891C22.24 101.573 22.365 101.268 22.5876 101.043C22.8101 100.819 23.112 100.692 23.4267 100.692H29.36V128.263C29.36 128.581 29.485 128.886 29.7076 129.11C29.9301 129.335 30.2319 129.462 30.5467 129.462H35.2933C35.608 129.462 35.9099 129.588 36.1324 129.813C36.355 130.037 36.48 130.342 36.48 130.66Z" fill="#EEC39A"/>
<path d="M86.3202 99.4937V94.6988C86.3202 94.3809 86.1952 94.076 85.9726 93.8512C85.7501 93.6264 85.4483 93.5001 85.1335 93.5001H80.3869C80.0722 93.5001 79.7703 93.3738 79.5478 93.149C79.3252 92.9242 79.2002 92.6193 79.2002 92.3014V87.5065C79.2002 87.1886 79.0752 86.8837 78.8526 86.6589C78.6301 86.4341 78.3283 86.3078 78.0135 86.3078H73.2669C72.9522 86.3078 72.6503 86.1815 72.4278 85.9567C72.2053 85.7319 72.0802 85.427 72.0802 85.109V80.3142C72.0802 79.9962 71.9552 79.6913 71.7326 79.4666C71.5101 79.2418 71.2083 79.1155 70.8935 79.1155H51.9069C51.5922 79.1155 51.2903 78.9892 51.0678 78.7644C50.8452 78.5396 50.7202 78.2347 50.7202 77.9167V73.1218C50.7202 72.8039 50.5952 72.499 50.3726 72.2742C50.1501 72.0494 49.8482 71.9232 49.5335 71.9232H37.6669C37.3522 71.9232 37.0504 72.0494 36.8278 72.2742C36.6053 72.499 36.4802 72.8039 36.4802 73.1218V77.9167C36.4802 78.0742 36.5109 78.23 36.5706 78.3755C36.6302 78.5209 36.7176 78.6531 36.8278 78.7644C36.938 78.8757 37.0688 78.964 37.2128 79.0242C37.3568 79.0845 37.5111 79.1155 37.6669 79.1155H42.4135C42.7283 79.1155 43.0301 79.2418 43.2526 79.4666C43.4752 79.6913 43.6002 79.9962 43.6002 80.3142V106.686C43.6002 107.004 43.4752 107.309 43.2526 107.534C43.0301 107.758 42.7283 107.885 42.4135 107.885H37.6669C37.3522 107.885 37.0504 108.011 36.8278 108.236C36.6053 108.461 36.4802 108.765 36.4802 109.083V121.071C36.4802 121.389 36.6053 121.693 36.8278 121.918C37.0503 122.143 37.3522 122.269 37.6669 122.269H42.4135C42.7283 122.269 43.0301 122.396 43.2526 122.62C43.4752 122.845 43.6002 123.15 43.6002 123.468V128.263C43.6002 128.581 43.7252 128.886 43.9478 129.111C44.1703 129.335 44.4722 129.462 44.7869 129.462H49.5335C49.8482 129.462 50.1501 129.588 50.3726 129.813C50.5952 130.038 50.7202 130.342 50.7202 130.66V135.455C50.7202 135.773 50.8452 136.078 51.0678 136.303C51.2903 136.528 51.5922 136.654 51.9069 136.654H63.7735C64.0883 136.654 64.3901 136.528 64.6126 136.303C64.8352 136.078 64.9602 135.773 64.9602 135.455V130.66C64.9602 130.342 65.0853 130.038 65.3078 129.813C65.5303 129.588 65.8322 129.462 66.1469 129.462H78.0135C78.1694 129.462 78.3237 129.431 78.4677 129.37C78.6116 129.31 78.7425 129.222 78.8526 129.111C78.9628 128.999 79.0503 128.867 79.1099 128.722C79.1695 128.576 79.2002 128.42 79.2002 128.263V123.468C79.2002 123.15 79.3253 122.845 79.5478 122.62C79.7704 122.396 80.0722 122.269 80.3869 122.269H85.1335C85.2894 122.269 85.4437 122.238 85.5877 122.178C85.7316 122.118 85.8624 122.03 85.9726 121.918C86.0828 121.807 86.1703 121.675 86.2299 121.529C86.2895 121.384 86.3202 121.228 86.3202 121.071V116.276C86.3202 115.958 86.4453 115.653 86.6678 115.428C86.8903 115.203 87.1922 115.077 87.5069 115.077H92.2535C92.5683 115.077 92.8701 114.951 93.0927 114.726C93.3152 114.501 93.4402 114.196 93.4402 113.878V101.891C93.4402 101.573 93.3152 101.268 93.0926 101.043C92.8701 100.819 92.5683 100.692 92.2535 100.692H87.5069C87.1922 100.692 86.8903 100.566 86.6678 100.341C86.4452 100.116 86.3202 99.8116 86.3202 99.4937ZM78.0135 115.077H51.9069C51.5922 115.077 51.2903 114.951 51.0678 114.726C50.8452 114.501 50.7202 114.196 50.7202 113.878V109.083C50.7202 108.765 50.8453 108.461 51.0678 108.236C51.2903 108.011 51.5922 107.885 51.9069 107.885H56.6535C56.9683 107.885 57.2701 107.758 57.4927 107.534C57.7152 107.309 57.8402 107.004 57.8402 106.686V101.891C57.8402 101.573 57.9653 101.268 58.1878 101.043C58.4104 100.819 58.7122 100.692 59.0269 100.692H70.8935C71.2083 100.692 71.5101 100.819 71.7326 101.043C71.9552 101.268 72.0802 101.573 72.0802 101.891V106.686C72.0802 107.004 72.2053 107.309 72.4278 107.534C72.6503 107.758 72.9522 107.885 73.2669 107.885H78.0135C78.3283 107.885 78.6301 108.011 78.8526 108.236C79.0752 108.461 79.2002 108.765 79.2002 109.083V113.878C79.2002 114.196 79.0752 114.501 78.8526 114.726C78.6301 114.951 78.3283 115.077 78.0135 115.077Z" fill="#EEC39A"/>
<path d="M151.58 79.1155H156.34C156.653 79.1155 156.953 78.9899 157.174 78.7663C157.396 78.5427 157.52 78.2395 157.52 77.9233V73.1155C157.52 72.7992 157.396 72.496 157.174 72.2724C156.953 72.0488 156.653 71.9232 156.34 71.9232H144.46C144.147 71.9232 143.847 72.0488 143.626 72.2724C143.404 72.496 143.28 72.7992 143.28 73.1155V77.9233C143.28 78.2395 143.156 78.5428 142.934 78.7664C142.713 78.99 142.413 79.1156 142.1 79.1156H123.1C122.787 79.1156 122.487 79.2413 122.266 79.4649C122.044 79.6885 121.92 79.9917 121.92 80.308V85.1156C121.92 85.4318 121.796 85.7351 121.574 85.9587C121.353 86.1823 121.053 86.308 120.74 86.308H115.98C115.667 86.308 115.367 86.4335 115.146 86.6571C114.925 86.8807 114.8 87.1839 114.8 87.5001V92.3079C114.8 92.4645 114.77 92.6195 114.71 92.7642C114.651 92.9089 114.564 93.0403 114.454 93.151C114.345 93.2617 114.215 93.3496 114.071 93.4095C113.928 93.4694 113.775 93.5003 113.62 93.5003H108.86C108.547 93.5003 108.247 93.6259 108.026 93.8495C107.804 94.0731 107.68 94.3763 107.68 94.6926V99.5002C107.68 99.8165 107.556 100.12 107.334 100.343C107.113 100.567 106.813 100.693 106.5 100.693H101.74C101.427 100.693 101.127 100.818 100.906 101.042C100.684 101.265 100.56 101.569 100.56 101.885V113.885C100.56 114.201 100.684 114.504 100.906 114.728C101.127 114.952 101.427 115.077 101.74 115.077H106.5C106.813 115.077 107.113 115.203 107.334 115.426C107.556 115.65 107.68 115.953 107.68 116.269V121.077C107.68 121.393 107.804 121.697 108.026 121.92C108.247 122.144 108.547 122.27 108.86 122.27H113.62C113.933 122.27 114.233 122.395 114.454 122.619C114.676 122.842 114.8 123.145 114.8 123.462V128.269C114.8 128.586 114.924 128.889 115.146 129.113C115.367 129.336 115.667 129.462 115.98 129.462H127.86C128.173 129.462 128.473 129.587 128.694 129.811C128.916 130.035 129.04 130.338 129.04 130.654V135.462C129.04 135.778 129.164 136.081 129.386 136.305C129.607 136.529 129.907 136.654 130.22 136.654H142.1C142.413 136.654 142.713 136.529 142.934 136.305C143.156 136.081 143.28 135.778 143.28 135.462V130.654C143.28 130.338 143.404 130.034 143.626 129.811C143.847 129.587 144.147 129.462 144.46 129.462H149.22C149.533 129.462 149.833 129.336 150.054 129.112C150.276 128.889 150.4 128.586 150.4 128.269V123.462C150.4 123.145 150.524 122.842 150.746 122.619C150.967 122.395 151.267 122.269 151.58 122.269H156.34C156.653 122.269 156.953 122.144 157.174 121.92C157.396 121.697 157.52 121.393 157.52 121.077V109.077C157.52 108.761 157.396 108.458 157.174 108.234C156.953 108.01 156.653 107.885 156.34 107.885H151.58C151.267 107.885 150.967 107.759 150.746 107.536C150.524 107.312 150.4 107.009 150.4 106.693V80.3078C150.4 79.9915 150.524 79.6883 150.746 79.4647C150.967 79.2411 151.267 79.1155 151.58 79.1155ZM142.1 115.077H115.98C115.667 115.077 115.367 114.951 115.146 114.728C114.924 114.504 114.8 114.201 114.8 113.885V109.077C114.8 108.761 114.924 108.458 115.146 108.234C115.367 108.01 115.667 107.885 115.98 107.885H120.74C121.053 107.885 121.353 107.759 121.574 107.536C121.796 107.312 121.92 107.009 121.92 106.693V101.885C121.92 101.568 122.044 101.265 122.266 101.042C122.487 100.818 122.787 100.692 123.1 100.692H134.98C135.293 100.692 135.593 100.818 135.814 101.042C136.036 101.265 136.16 101.568 136.16 101.885V106.693C136.16 107.009 136.284 107.312 136.506 107.536C136.727 107.759 137.027 107.885 137.34 107.885H142.1C142.413 107.885 142.713 108.011 142.934 108.234C143.156 108.458 143.28 108.761 143.28 109.077V113.885C143.28 114.201 143.156 114.504 142.934 114.728C142.713 114.951 142.413 115.077 142.1 115.077Z" fill="#EEC39A"/>
<path d="M143.28 109.093V113.869C143.28 114.189 143.154 114.496 142.93 114.723C142.705 114.95 142.401 115.077 142.084 115.077H115.996C115.679 115.077 115.375 114.95 115.15 114.723C114.926 114.496 114.8 114.189 114.8 113.869V109.093C114.8 108.772 114.926 108.465 115.15 108.239C115.375 108.012 115.679 107.885 115.996 107.885H120.724C121.041 107.885 121.345 107.757 121.57 107.531C121.794 107.304 121.92 106.997 121.92 106.676V101.901C121.92 101.58 122.046 101.273 122.27 101.046C122.495 100.82 122.799 100.692 123.116 100.692H134.964C135.281 100.692 135.585 100.82 135.81 101.046C136.034 101.273 136.16 101.58 136.16 101.901V106.676C136.16 106.997 136.286 107.304 136.51 107.531C136.735 107.757 137.039 107.885 137.356 107.885H142.084C142.401 107.885 142.705 108.012 142.93 108.239C143.154 108.465 143.28 108.772 143.28 109.093Z" fill="black"/>
<path d="M79.2 109.093V113.869C79.2 114.189 79.074 114.496 78.8496 114.723C78.6253 114.95 78.3211 115.077 78.0039 115.077H51.9161C51.5989 115.077 51.2946 114.95 51.0703 114.723C50.846 114.496 50.72 114.189 50.72 113.869V109.093C50.72 108.772 50.846 108.465 51.0703 108.239C51.2946 108.012 51.5989 107.885 51.9161 107.885H56.6439C56.9611 107.885 57.2653 107.757 57.4896 107.531C57.714 107.304 57.84 106.997 57.84 106.676V101.901C57.84 101.58 57.966 101.273 58.1903 101.046C58.4146 100.82 58.7189 100.692 59.0361 100.692H70.8839C71.2011 100.692 71.5053 100.82 71.7296 101.046C71.954 101.273 72.08 101.58 72.08 101.901V106.676C72.08 106.997 72.206 107.304 72.4303 107.531C72.6546 107.757 72.9589 107.885 73.2761 107.885H78.0039C78.3211 107.885 78.6253 108.012 78.8496 108.239C79.074 108.465 79.2 108.772 79.2 109.093Z" fill="black"/>
</svg>
