<svg width="379" height="852" viewBox="0 0 379 852" fill="none" xmlns="http://www.w3.org/2000/svg">
<path d="M490.135 934C219.67 934 0.415039 701.86 0.415039 415.5C0.415039 129.14 219.67 -103 490.135 -103C760.6 -103 979.855 129.14 979.855 415.5C979.855 701.86 760.6 934 490.135 934Z" stroke="#6D9C66" stroke-opacity="0.3" stroke-width="0.83" stroke-miterlimit="1.5" stroke-linecap="round" stroke-linejoin="round"/>
<path d="M490.135 771.243C304.569 771.243 154.138 611.971 154.138 415.5C154.138 219.029 304.569 59.7573 490.135 59.7573C675.7 59.7573 826.131 219.029 826.131 415.5C826.131 611.971 675.7 771.243 490.135 771.243Z" stroke="#6D9C66" stroke-opacity="0.3" stroke-width="0.830181" stroke-miterlimit="1.5" stroke-linecap="round" stroke-linejoin="round"/>
<path d="M490.135 599.942C393.924 599.942 315.93 517.365 315.93 415.5C315.93 313.635 393.924 231.058 490.135 231.058C586.345 231.058 664.339 313.635 664.339 415.5C664.339 517.365 586.345 599.942 490.135 599.942Z" stroke="#6D9C66" stroke-opacity="0.3" stroke-width="0.832392" stroke-miterlimit="1.5" stroke-linecap="round" stroke-linejoin="round"/>
</svg>
